<svg width="156" height="160" viewBox="0 0 156 160" fill="none" xmlns="http://www.w3.org/2000/svg">
<g filter="url(#filter0_d_378_46)">
<path fill-rule="evenodd" clip-rule="evenodd" d="M87.75 30.3371V9.75C87.75 8.45707 87.2364 7.21709 86.3222 6.30285C85.4079 5.38861 84.1679 4.875 82.875 4.875C81.5821 4.875 80.3421 5.38861 79.4278 6.30285C78.5136 7.21709 78 8.45707 78 9.75V30.3371C78 31.6301 78.5136 32.87 79.4278 33.7843C80.3421 34.6985 81.5821 35.2121 82.875 35.2121C84.1679 35.2121 85.4079 34.6985 86.3222 33.7843C87.2364 32.87 87.75 31.6301 87.75 30.3371ZM58.5 9.75V30.3371C58.5 31.6301 59.0136 32.87 59.9279 33.7843C60.8421 34.6985 62.0821 35.2121 63.375 35.2121C64.6679 35.2121 65.9079 34.6985 66.8221 33.7843C67.7364 32.87 68.25 31.6301 68.25 30.3371V9.75C68.25 8.45707 67.7364 7.21709 66.8221 6.30285C65.9079 5.38861 64.6679 4.875 63.375 4.875C62.0821 4.875 60.8421 5.38861 59.9279 6.30285C59.0136 7.21709 58.5 8.45707 58.5 9.75ZM68.25 29.25V39C68.25 40.2929 68.7636 41.5329 69.6779 42.4471C70.5921 43.3614 71.8321 43.875 73.125 43.875C74.4179 43.875 75.6579 43.3614 76.5721 42.4471C77.4864 41.5329 78 40.2929 78 39V29.25C78 27.9571 77.4864 26.7171 76.5721 25.8029C75.6579 24.8886 74.4179 24.375 73.125 24.375C71.8321 24.375 70.5921 24.8886 69.6779 25.8029C68.7636 26.7171 68.25 27.9571 68.25 29.25ZM45.5471 107.596L52.4404 100.703C52.893 100.25 53.252 99.7129 53.497 99.1216C53.7419 98.5302 53.868 97.8964 53.868 97.2563C53.868 96.6162 53.7419 95.9823 53.497 95.391C53.252 94.7996 52.893 94.2622 52.4404 93.8096C51.9878 93.357 51.4504 92.998 50.8591 92.753C50.2677 92.5081 49.6338 92.382 48.9938 92.382C48.3537 92.382 47.7198 92.5081 47.1285 92.753C46.5371 92.998 45.9997 93.357 45.5471 93.8096L38.6539 100.703C37.7659 101.622 37.2745 102.854 37.2856 104.132C37.2967 105.41 37.8094 106.633 38.7133 107.537C39.6171 108.441 40.8398 108.953 42.118 108.964C43.3963 108.976 44.6277 108.484 45.5471 107.596ZM117 68.25H107.25C105.957 68.25 104.717 68.7636 103.803 69.6779C102.889 70.5921 102.375 71.8321 102.375 73.125C102.375 74.4179 102.889 75.6579 103.803 76.5721C104.717 77.4864 105.957 78 107.25 78H117C118.293 78 119.533 77.4864 120.447 76.5721C121.361 75.6579 121.875 74.4179 121.875 73.125C121.875 71.8321 121.361 70.5921 120.447 69.6779C119.533 68.7636 118.293 68.25 117 68.25ZM100.703 52.4404L107.596 45.5471C108.484 44.6277 108.976 43.3963 108.964 42.118C108.953 40.8398 108.441 39.6171 107.537 38.7133C106.633 37.8094 105.41 37.2967 104.132 37.2856C102.854 37.2745 101.622 37.7659 100.703 38.6539L93.8096 45.5471C93.357 45.9997 92.998 46.5371 92.753 47.1285C92.5081 47.7198 92.382 48.3537 92.382 48.9938C92.382 49.6339 92.5081 50.2677 92.753 50.8591C92.998 51.4504 93.357 51.9878 93.8096 52.4404C94.2622 52.893 94.7996 53.252 95.391 53.497C95.9823 53.7419 96.6162 53.868 97.2563 53.868C97.8964 53.868 98.5302 53.7419 99.1216 53.497C99.7129 53.252 100.25 52.893 100.703 52.4404ZM52.4404 45.5471L45.5471 38.6539C44.6277 37.7659 43.3963 37.2745 42.118 37.2856C40.8398 37.2967 39.6171 37.8094 38.7133 38.7133C37.8094 39.6171 37.2967 40.8398 37.2856 42.118C37.2745 43.3963 37.7659 44.6277 38.6539 45.5471L45.5471 52.4404C45.9997 52.893 46.5371 53.252 47.1285 53.497C47.7198 53.7419 48.3537 53.868 48.9938 53.868C49.6338 53.868 50.2677 53.7419 50.8591 53.497C51.4504 53.252 51.9878 52.893 52.4404 52.4404C52.893 51.9878 53.252 51.4504 53.497 50.8591C53.7419 50.2677 53.868 49.6339 53.868 48.9938C53.868 48.3537 53.7419 47.7198 53.497 47.1285C53.252 46.5371 52.893 45.9997 52.4404 45.5471ZM39 68.25H29.25C27.9571 68.25 26.7171 68.7636 25.8029 69.6779C24.8886 70.5921 24.375 71.8321 24.375 73.125C24.375 74.4179 24.8886 75.6579 25.8029 76.5721C26.7171 77.4864 27.9571 78 29.25 78H39C40.2929 78 41.5329 77.4864 42.4471 76.5721C43.3614 75.6579 43.875 74.4179 43.875 73.125C43.875 71.8321 43.3614 70.5921 42.4471 69.6779C41.5329 68.7636 40.2929 68.25 39 68.25Z" fill="#499FD4"/>
<path fill-rule="evenodd" clip-rule="evenodd" d="M81.8658 120.447L91.6158 130.197C92.0682 130.65 92.6054 131.009 93.1968 131.254C93.7883 131.5 94.4222 131.626 95.0625 131.626C95.7027 131.626 96.3367 131.5 96.9281 131.254C97.5195 131.009 98.0568 130.65 98.5091 130.197L113.134 115.572C114.022 114.652 114.513 113.421 114.502 112.143C114.491 110.864 113.979 109.642 113.075 108.738C112.171 107.834 110.948 107.321 109.67 107.31C108.392 107.299 107.16 107.79 106.241 108.678L95.0625 119.857L88.7591 113.553C87.8397 112.665 86.6082 112.174 85.33 112.185C84.0518 112.196 82.8291 112.709 81.9252 113.613C81.0214 114.517 80.5087 115.739 80.4976 117.018C80.4865 118.296 80.9778 119.527 81.8658 120.447Z" fill="#84CE2F"/>
<path fill-rule="evenodd" clip-rule="evenodd" d="M97.5 82.875C78.6679 82.875 63.375 98.1679 63.375 117C63.375 135.832 78.6679 151.125 97.5 151.125C116.332 151.125 131.625 135.832 131.625 117C131.625 98.1679 116.332 82.875 97.5 82.875ZM97.5 92.625C110.955 92.625 121.875 103.545 121.875 117C121.875 130.455 110.955 141.375 97.5 141.375C84.045 141.375 73.125 130.455 73.125 117C73.125 103.545 84.045 92.625 97.5 92.625Z" fill="#499FD4"/>
<path fill-rule="evenodd" clip-rule="evenodd" d="M51.4654 105.554C46.1296 101.993 41.7552 97.1698 38.7303 91.5129C35.7054 85.856 34.1235 79.5399 34.125 73.125C34.125 51.6019 51.6019 34.125 73.125 34.125C94.6481 34.125 112.125 51.6019 112.125 73.125C112.125 74.4179 112.639 75.6579 113.553 76.5722C114.467 77.4864 115.707 78 117 78C118.293 78 119.533 77.4864 120.447 76.5722C121.361 75.6579 121.875 74.4179 121.875 73.125C121.875 46.2199 100.03 24.375 73.125 24.375C46.2199 24.375 24.375 46.2199 24.375 73.125C24.3714 81.1408 26.3464 89.0336 30.1247 96.1031C33.9031 103.173 39.368 109.2 46.0346 113.651C46.5662 114.011 47.1637 114.262 47.7928 114.391C48.4219 114.519 49.0701 114.522 49.7004 114.4C50.3306 114.277 50.9303 114.031 51.4652 113.676C52.0001 113.321 52.4595 112.863 52.8172 112.33C53.1748 111.797 53.4236 111.198 53.5492 110.568C53.6748 109.939 53.6749 109.291 53.5493 108.661C53.4236 108.031 53.1749 107.433 52.8173 106.899C52.4597 106.366 52.0002 105.909 51.4654 105.554ZM53.625 14.625H92.625C93.9179 14.625 95.1579 14.1114 96.0722 13.1971C96.9864 12.2829 97.5 11.0429 97.5 9.75C97.5 8.45707 96.9864 7.21709 96.0722 6.30285C95.1579 5.38861 93.9179 4.875 92.625 4.875H53.625C52.3321 4.875 51.0921 5.38861 50.1779 6.30285C49.2636 7.21709 48.75 8.45707 48.75 9.75C48.75 11.0429 49.2636 12.2829 50.1779 13.1971C51.0921 14.1114 52.3321 14.625 53.625 14.625Z" fill="#292C44"/>
</g>
<defs>
<filter id="filter0_d_378_46" x="-4" y="0" width="164" height="164" filterUnits="userSpaceOnUse" color-interpolation-filters="sRGB">
<feFlood flood-opacity="0" result="BackgroundImageFix"/>
<feColorMatrix in="SourceAlpha" type="matrix" values="0 0 0 0 0 0 0 0 0 0 0 0 0 0 0 0 0 0 127 0" result="hardAlpha"/>
<feOffset dy="4"/>
<feGaussianBlur stdDeviation="2"/>
<feComposite in2="hardAlpha" operator="out"/>
<feColorMatrix type="matrix" values="0 0 0 0 0 0 0 0 0 0 0 0 0 0 0 0 0 0 0.25 0"/>
<feBlend mode="normal" in2="BackgroundImageFix" result="effect1_dropShadow_378_46"/>
<feBlend mode="normal" in="SourceGraphic" in2="effect1_dropShadow_378_46" result="shape"/>
</filter>
</defs>
</svg>
