<svg width="32" height="22" viewBox="0 0 32 22" fill="none" xmlns="http://www.w3.org/2000/svg">
<path d="M29.2812 0.59375H2.71875C1.54514 0.59375 0.59375 1.60111 0.59375 2.84375V19.7188C0.59375 20.9614 1.54514 21.9688 2.71875 21.9688H29.2812C30.4549 21.9688 31.4062 20.9614 31.4062 19.7188V2.84375C31.4062 1.60111 30.4549 0.59375 29.2812 0.59375Z" fill="#78B75B"/>
<path d="M2.71875 17.1875V0.59375C2.15516 0.59375 1.61466 0.830803 1.21615 1.25276C0.817633 1.67472 0.59375 2.24701 0.59375 2.84375V19.7188C0.59375 20.3155 0.817633 20.8878 1.21615 21.3097C1.61466 21.7317 2.15516 21.9688 2.71875 21.9688H29.2812C29.8448 21.9688 30.3853 21.7317 30.7839 21.3097C31.1824 20.8878 31.4062 20.3155 31.4062 19.7188V19.4375H4.84375C4.28016 19.4375 3.73966 19.2004 3.34115 18.7785C2.94263 18.3565 2.71875 17.7842 2.71875 17.1875Z" fill="#669E4F"/>
<path d="M8.03125 14.9375H4.84375C4.25695 14.9375 3.78125 15.4412 3.78125 16.0625V18.3125C3.78125 18.9338 4.25695 19.4375 4.84375 19.4375H8.03125C8.61805 19.4375 9.09375 18.9338 9.09375 18.3125V16.0625C9.09375 15.4412 8.61805 14.9375 8.03125 14.9375Z" fill="#FACF5B"/>
<path d="M6.17188 18.0312C5.89008 18.0312 5.61983 17.9127 5.42057 17.7017C5.22132 17.4908 5.10938 17.2046 5.10938 16.9062V14.9375H4.84375C4.56196 14.9375 4.29171 15.056 4.09245 15.267C3.89319 15.478 3.78125 15.7641 3.78125 16.0625V18.3125C3.78125 18.6109 3.89319 18.897 4.09245 19.108C4.29171 19.319 4.56196 19.4375 4.84375 19.4375H8.03125C8.31304 19.4375 8.58329 19.319 8.78255 19.108C8.98181 18.897 9.09375 18.6109 9.09375 18.3125V18.0312H6.17188Z" fill="#F0AF4C"/>
<path d="M3.78125 9.875H22.375V12.125H3.78125V9.875Z" fill="#F7FCFF"/>
<path d="M4.84375 9.875H3.78125V12.125H22.375V11H5.90625C5.62446 11 5.35421 10.8815 5.15495 10.6705C4.95569 10.4595 4.84375 10.1734 4.84375 9.875Z" fill="#D7E6EF"/>
<path d="M0.59375 3.125H31.4062V7.625H0.59375V3.125Z" fill="#545A6D"/>
<path d="M0.59375 3.125H2.71875V7.625H0.59375V3.125Z" fill="#44394A"/>
<path d="M12.2812 16.625H28.2188C28.3596 16.625 28.4948 16.5657 28.5944 16.4602C28.694 16.3548 28.75 16.2117 28.75 16.0625C28.75 15.9133 28.694 15.7702 28.5944 15.6648C28.4948 15.5593 28.3596 15.5 28.2188 15.5H12.2812C12.1404 15.5 12.0052 15.5593 11.9056 15.6648C11.806 15.7702 11.75 15.9133 11.75 16.0625C11.75 16.2117 11.806 16.3548 11.9056 16.4602C12.0052 16.5657 12.1404 16.625 12.2812 16.625ZM28.2188 17.75H12.2812C12.1404 17.75 12.0052 17.8093 11.9056 17.9148C11.806 18.0202 11.75 18.1633 11.75 18.3125C11.75 18.4617 11.806 18.6048 11.9056 18.7102C12.0052 18.8157 12.1404 18.875 12.2812 18.875H28.2188C28.3596 18.875 28.4948 18.8157 28.5944 18.7102C28.694 18.6048 28.75 18.4617 28.75 18.3125C28.75 18.1633 28.694 18.0202 28.5944 17.9148C28.4948 17.8093 28.3596 17.75 28.2188 17.75Z" fill="#F7FCFF"/>
</svg>
